<?xml version="1.0" encoding="UTF-8"?>
<svg id="Layer_2" data-name="Layer 2" xmlns="http://www.w3.org/2000/svg" viewBox="0 0 2029.42 552.47">
  <defs>
    <style>
      .cls-1 {
        stroke-width: 4px;
      }

      .cls-1, .cls-2 {
        stroke: #fbb03b;
        stroke-miterlimit: 10;
      }

      .cls-2 {
        stroke-width: 3px;
      }
    </style>
  </defs>
  <g id="Layer_1-2" data-name="Layer 1">
    <g>
      <g>
        <path class="cls-2" d="m1571.9,547.89c-2.9-1.39-4.96-4.92-6.16-10.6-.42-2.42-.82-7.19-1.18-14.32-.12-4.59-.29-7.88-.5-9.88-.21-1.99-.71-3.25-1.5-3.76-.79-.51-2.08-.8-3.9-.86-4.17-.36-6.25-1.96-6.25-4.8,0-2.48,1.54-4.56,4.62-6.25,2.54-1.27,4.38-2.37,5.53-3.31,1.15-.94,1.92-2.29,2.31-4.08.39-1.78.77-4.58,1.13-8.38.06-.91.15-1.78.27-2.63.18-1.99.35-3.81.5-5.44.15-1.63.29-2.78.41-3.44.3-1.87.45-3.47.45-4.8,0-1.57-.21-2.75-.63-3.53-.18-.36-.56-.78-1.13-1.27-.58-.48-1.19-.94-1.86-1.36-2.6-1.51-3.9-3.23-3.9-5.17v-.36c.12-1.99,1.72-3.78,4.8-5.35,2.18-.97,6.49-2.25,12.96-3.85,6.46-1.6,12.6-2.88,18.4-3.85,10.45-1.69,18.18-2.54,23.2-2.54,2.42,0,4.2.21,5.35.63,2.78,1.09,4.29,2.27,4.53,3.53s.36,2.05.36,2.36c0,1.69-.91,3.14-2.72,4.35-.54.3-1.07.54-1.59.73-.51.18-1.24.32-2.17.41-.94.09-2.25.17-3.94.23-2.66.18-5.84.5-9.56.95-3.72.45-8.56,1.13-14.54,2.04-6.65.73-10.83,2.01-12.55,3.85-1.72,1.84-2.85,6.18-3.4,13-.54,5.26-.83,8.58-.86,9.97-.03,1.39-.04,2.24-.04,2.54,0,1.87.15,3.11.45,3.72.54.97,1.24,1.66,2.08,2.08.3.12.59.18.86.18h.77c.36,0,.85-.03,1.45-.09.85-.06,2.05-.24,3.62-.54,1.57-.3,3.68-.69,6.34-1.18,1.03-.18,2.33-.35,3.9-.5,1.57-.15,3.02-.23,4.35-.23s2.36.02,3.08.04c.73.03,1.31.11,1.77.23.45.12.89.3,1.31.54,2.11,1.45,3.17,3.14,3.17,5.07v.27c-.12,1.93-.97,3.32-2.54,4.17-1.57.85-4.5,1.54-8.79,2.08-3.2.42-6.42.95-9.65,1.59-3.23.63-5.88,1.25-7.93,1.86-2.78.73-4.47,2.33-5.07,4.8-.36,1.51-.54,3.41-.54,5.71v4.44c0,3.32.12,6.77.36,10.33.24,4.29.6,7.76,1.09,10.42.18.91.32,1.83.41,2.76.09.94.14,1.65.14,2.13,0,2.12-.56,3.61-1.68,4.49-1.12.88-2.19,1.31-3.22,1.31-.73,0-1.45-.15-2.17-.45Z"/>
        <path class="cls-2" d="m1625.18,546.8c-3.99-1.27-6.07-8.12-6.25-20.57-.06-1.51-.09-3.08-.09-4.71,0-6.71.3-14.74.91-24.1.78-11.72,1.74-22.73,2.85-33.03,1.12-10.3,2.22-17.05,3.31-20.25,1.33-3.5,3.41-5.26,6.25-5.26.78,0,1.39.09,1.81.27.42.18.91.54,1.45,1.09.91.85,1.42,1.72,1.54,2.63.12.91.18,1.66.18,2.27,0,1.09-.12,2.39-.36,3.9-.42,2.05-.8,4.34-1.13,6.84-.33,2.51-.68,6.03-1.04,10.56-.36,4.53-.88,10.78-1.54,18.76-.54,7.61-.94,13.79-1.18,18.53-.24,4.74-.36,10.62-.36,17.62,0,5.2.08,8.82.23,10.87.15,2.05.38,3.69.68,4.89.42,1.93.63,3.57.63,4.89s-.21,2.36-.63,3.08c-.67,1.15-1.47,1.84-2.4,2.08-.94.24-1.62.36-2.04.36-.97,0-1.9-.24-2.81-.72Z"/>
        <path class="cls-2" d="m1645.57,546.26c-2.66-1.21-4.44-4.32-5.35-9.33-.18-1.21-.29-3.14-.32-5.8-.03-2.66-.04-4.92-.04-6.8v-5.89c0-4.05.09-7.46.27-10.24,1.75-30.87,4.17-50.23,7.25-58.09,1.81-3.93,4.05-5.89,6.71-5.89.48,0,.94.06,1.36.18,2.23.42,3.35,2.02,3.35,4.8,0,1.51-.3,3.32-.91,5.44-.6,2.17-1.09,4.4-1.45,6.66-.36,2.26-.72,5.48-1.09,9.65-.67,6.89-1,12.14-1,15.77,0,1.87.09,3.29.27,4.26.24,1.15.6,1.72,1.09,1.72.3,0,.69-.3,1.18-.91,1.15-1.39,3.02-4.98,5.62-10.78,10.21-23.02,19.69-36.37,28.45-40.05,1.15-.54,2.1-.91,2.85-1.09.75-.18,1.95-.27,3.58-.27,1.51,0,2.64.08,3.4.23.75.15,1.62.47,2.58.95,1.51.79,2.99,1.93,4.44,3.44,1.45,1.51,2.63,3.17,3.53,4.98,3.32,7.67,4.98,17.97,4.98,30.9s-1.84,30-5.53,49.39c-.67,3.69-1.24,6.36-1.72,8.02-.48,1.66-1.09,2.92-1.81,3.76-1.45,1.75-2.99,2.63-4.62,2.63-.48,0-.94-.06-1.36-.18-2.05-.66-3.38-2.51-3.99-5.53-.06-.18-.09-.42-.09-.73,0-1.57.48-4.86,1.45-9.88,1.93-10.03,3.23-18.4,3.9-25.1.66-6.71,1-13.47,1-20.3v-3.44c-.06-3.44-.12-6.18-.18-8.2-.06-2.02-.15-3.62-.27-4.8-.12-1.18-.3-2.28-.54-3.31-1.27-6.04-3.26-9.06-5.98-9.06-3.62,0-8.49,5.41-14.59,16.22-8.58,14.8-16.22,35.22-22.93,61.26-.67,2.54-1.27,4.77-1.81,6.71-.54,1.93-.94,3.17-1.18,3.72-1.21,2.24-2.58,3.71-4.12,4.44-1.54.72-2.85,1.09-3.94,1.09-.85,0-1.66-.18-2.45-.54Z"/>
        <path class="cls-2" d="m1731.29,549.97c-1.27-.73-2.16-2.13-2.67-4.21-.51-2.08-.77-5.6-.77-10.56,0-3.68.12-7.25.36-10.69.24-3.44.6-7.49,1.09-12.14.18-2.11.32-3.55.41-4.3.09-.75.14-1.31.14-1.68s-.03-.63-.09-.82c-.12-.48-.27-.94-.45-1.36-.54-1.15-1.54-2.11-2.99-2.9-3.02-1.33-4.53-3.26-4.53-5.8,0-1.45.45-2.73,1.36-3.85.91-1.12,2.48-2.31,4.71-3.58,3.81-2.23,6.13-4.17,6.98-5.8.18-.36.51-1.19,1-2.49.48-1.3,1.03-2.76,1.63-4.39,3.87-11.12,7.91-19.72,12.14-25.83,6.52-9.36,13.32-14.05,20.39-14.05h.18c7.13,0,13.02,4.77,17.67,14.32.97,2.24,1.9,4.89,2.81,7.97s1.6,6.04,2.08,8.88c.36,2.3.72,5.07,1.09,8.34.36,3.26.63,6.09.82,8.47.18,2.39.27,4.03.27,4.94v.73c-.06.48-.14,1.22-.23,2.22s-.17,2.04-.23,3.13c-.06,1.27-.15,2.75-.27,4.44-.06,1.09-.12,2.05-.18,2.9-.72,10.33-2.3,20.99-4.71,31.99-.79,3.62-1.51,6.27-2.17,7.93-.67,1.66-1.48,2.95-2.45,3.85-.73.79-1.3,1.3-1.72,1.54-.42.24-1.03.36-1.81.36-2.48,0-4.17-1.03-5.08-3.08-.54-1.09-.82-2.23-.82-3.44s.3-3.05.91-5.53c2.23-9.24,3.7-16.88,4.39-22.93.69-6.04,1.04-10.33,1.04-12.87s-.24-4.35-.73-5.44c-.54-1.21-1.59-2.02-3.13-2.45-1.54-.42-4.25-.63-8.11-.63-4.83.12-9.35.51-13.55,1.18-4.2.67-7.14,1.51-8.83,2.54-.79.54-1.5,1.36-2.13,2.45-.63,1.09-1.1,2.3-1.4,3.62-2.05,10.45-3.2,21.78-3.44,33.98-.06,2.9-.17,5.47-.32,7.7-.15,2.24-.29,3.59-.41,4.08-.3,1.21-.94,2.22-1.9,3.04-.97.82-2.03,1.22-3.17,1.22-.54,0-1.1-.09-1.68-.27-.57-.18-1.07-.42-1.5-.72Zm38.6-71.23c2.54-.06,4.47-.17,5.8-.32,1.33-.15,2.31-.36,2.95-.63.63-.27,1.1-.68,1.4-1.22.48-.78.72-1.99.72-3.62,0-.91-.09-1.96-.27-3.17-.36-3.2-1.1-6.54-2.22-10.01-1.12-3.47-2.37-6.18-3.76-8.11-1.51-1.75-3.17-2.63-4.98-2.63-2.12,0-4.41,1.27-6.89,3.81-2.6,2.96-5.17,7.01-7.7,12.14-2.54,5.14-3.81,8.79-3.81,10.96,0,1.09.27,1.96.82,2.63.3.3.59.51.86.63.27.12.8.18,1.59.18s1.96-.03,3.53-.09c.54-.06,1.18-.09,1.9-.09,1.51-.06,3.17-.14,4.98-.23,1.81-.09,3.5-.17,5.07-.23Z"/>
        <path class="cls-2" d="m1806.05,546.26c-2.66-1.21-4.44-4.32-5.35-9.33-.18-1.21-.29-3.14-.32-5.8-.03-2.66-.04-4.92-.04-6.8v-5.89c0-4.05.09-7.46.27-10.24,1.75-30.87,4.17-50.23,7.25-58.09,1.81-3.93,4.05-5.89,6.71-5.89.48,0,.94.06,1.36.18,2.23.42,3.35,2.02,3.35,4.8,0,1.51-.3,3.32-.91,5.44-.6,2.17-1.09,4.4-1.45,6.66-.36,2.26-.72,5.48-1.09,9.65-.67,6.89-1,12.14-1,15.77,0,1.87.09,3.29.27,4.26.24,1.15.6,1.72,1.09,1.72.3,0,.69-.3,1.18-.91,1.15-1.39,3.02-4.98,5.62-10.78,10.21-23.02,19.69-36.37,28.45-40.05,1.15-.54,2.1-.91,2.85-1.09.75-.18,1.95-.27,3.58-.27,1.51,0,2.64.08,3.4.23.75.15,1.62.47,2.58.95,1.51.79,2.99,1.93,4.44,3.44,1.45,1.51,2.63,3.17,3.53,4.98,3.32,7.67,4.98,17.97,4.98,30.9s-1.84,30-5.53,49.39c-.67,3.69-1.24,6.36-1.72,8.02-.48,1.66-1.09,2.92-1.81,3.76-1.45,1.75-2.99,2.63-4.62,2.63-.48,0-.94-.06-1.36-.18-2.05-.66-3.38-2.51-3.99-5.53-.06-.18-.09-.42-.09-.73,0-1.57.48-4.86,1.45-9.88,1.93-10.03,3.23-18.4,3.9-25.1.66-6.71,1-13.47,1-20.3v-3.44c-.06-3.44-.12-6.18-.18-8.2-.06-2.02-.15-3.62-.27-4.8-.12-1.18-.3-2.28-.54-3.31-1.27-6.04-3.26-9.06-5.98-9.06-3.62,0-8.49,5.41-14.59,16.22-8.58,14.8-16.22,35.22-22.93,61.26-.67,2.54-1.27,4.77-1.81,6.71-.54,1.93-.94,3.17-1.18,3.72-1.21,2.24-2.58,3.71-4.12,4.44-1.54.72-2.85,1.09-3.94,1.09-.85,0-1.66-.18-2.45-.54Z"/>
        <path class="cls-2" d="m1903.83,544.81c-10.75-2.42-17.61-10.24-20.57-23.47-.6-2.84-.92-5.47-.95-7.88-.03-2.42-.04-3.9-.04-4.44,0-3.68.18-7.04.54-10.06,3.14-20.78,10.06-36.85,20.75-48.21,1.69-1.75,3.25-3.14,4.67-4.17,1.42-1.03,3.07-2.02,4.94-2.99,3.81-1.69,7.4-2.54,10.78-2.54,5.13,0,9.73,1.99,13.77,5.98,2.84,3.38,4.26,6.68,4.26,9.88v.36c-.06,3.32-1.63,4.98-4.71,4.98-1.03,0-1.93-.3-2.72-.91-.79-.6-1.84-1.75-3.17-3.44-2.42-3.14-5.04-4.71-7.88-4.71-1.51,0-3.08.45-4.71,1.36-9.3,5.5-16.37,16.76-21.21,33.8-1.09,3.99-1.8,7.24-2.13,9.74s-.5,6.12-.5,10.83c0,2.72.01,4.76.04,6.12s.12,2.45.27,3.26c.15.82.35,1.71.59,2.67,1.57,5.26,4.02,8.7,7.34,10.33.66.42,1.25.71,1.77.86.51.15,1.13.24,1.86.27.72.03,1.78.05,3.17.05,2.78,0,5.27-.3,7.48-.91,2.21-.6,5.48-1.99,9.83-4.17,2.6-1.21,4.49-2.01,5.66-2.4,1.18-.39,2.16-.59,2.95-.59,3.87.06,5.8,1.75,5.8,5.08,0,2.36-1.33,4.44-3.99,6.25-1.63,1.09-3.97,2.36-7.02,3.81-3.05,1.45-5.75,2.57-8.11,3.35-4.77,1.69-9.18,2.54-13.23,2.54-1.93,0-3.78-.21-5.53-.63Z"/>
        <path class="cls-2" d="m1972.88,549.07c-4.41-1.39-7.85-3.99-10.33-7.79-3.62-5.86-5.56-13.87-5.8-24.01,0-5.56-.85-8.85-2.54-9.88-.42-.3-.92-.71-1.5-1.22-.58-.51-1.16-1.01-1.77-1.5-.72-.72-1.19-1.31-1.4-1.77-.21-.45-.32-1.04-.32-1.77,0-1.51.39-2.81,1.18-3.9.79-1.09,2.23-2.33,4.35-3.71,1.39-.85,2.45-2.01,3.17-3.49.72-1.48,1.39-3.67,1.99-6.57.48-2.05,1.12-4.71,1.9-7.97.42-1.63.79-3.14,1.09-4.53,1.03-3.87,1.6-6.34,1.72-7.43.12-1.09.18-1.81.18-2.17,0-1.15-.21-1.96-.63-2.45-.12-.24-.5-.53-1.13-.86-.63-.33-1.31-.68-2.04-1.04-3.02-1.09-4.53-2.72-4.53-4.89,0-.24.03-.51.09-.82.12-2.42,1.93-4.47,5.44-6.16,3.5-1.69,9.48-3.35,17.94-4.98,8.52-1.63,15.34-2.61,20.48-2.94,5.13-.33,8.67-.5,10.6-.5,4.05,0,6.8.36,8.25,1.09,1.99,1.33,2.99,2.9,2.99,4.71,0,.79-.18,1.63-.54,2.54-.36.97-1.04,1.74-2.04,2.31-1,.58-2.64,1.01-4.94,1.31-2.3.3-5.68.58-10.15.82-4.71.3-9.21.71-13.5,1.22-4.29.51-7.04.98-8.25,1.4-2.24.91-3.84,3.26-4.8,7.07-1.15,4.23-2.22,8.7-3.22,13.41-1,4.71-1.56,7.88-1.68,9.52v1.09c0,.67.03,1.15.09,1.45.12.48.39.94.82,1.36.24.24.51.42.82.54.3.12.71.18,1.22.18h3.4c1.45,0,3.41-.06,5.89-.18h1c1.99,0,3.47.15,4.44.45,1.15.36,2.11,1.12,2.9,2.26.54.85.82,1.81.82,2.9s-.27,2.05-.82,2.9c-.72,1.09-1.87,1.9-3.44,2.45-1.57.54-4.2,1.09-7.88,1.63-3.69.54-6.28,1.03-7.79,1.45-1.51.42-2.6,1.03-3.26,1.81-.79.73-1.31,1.74-1.59,3.04-.27,1.3-.47,3.43-.59,6.39v2.63c0,5.56.48,10.36,1.45,14.41,1.39,5.5,4.44,8.25,9.15,8.25,1.75,0,3.75-.39,5.98-1.18,1.99-.6,4.65-1.72,7.97-3.35,3.32-1.63,6.77-3.44,10.33-5.44,2.54-1.51,4.53-2.57,5.98-3.17,1.45-.6,2.69-.91,3.72-.91,1.45,0,2.67.58,3.67,1.72,1,1.15,1.5,2.36,1.5,3.62,0,.24-.03.51-.09.82-.3,1.63-1.48,3.31-3.53,5.03-2.05,1.72-5.53,3.91-10.42,6.57-6.46,3.44-12.02,5.95-16.67,7.52-2.17.67-4.25,1.06-6.21,1.18-1.96.12-3.31.18-4.03.18-2.05,0-3.75-.21-5.07-.63Z"/>
      </g>
      <g>
        <path class="cls-1" d="m66.16,351.9c-22.57-6.53-38.91-19.4-49.01-38.61-10.1-19.21-15.15-40.4-15.15-63.56,0-5.74.3-11.68.89-17.82,3.17-27.72,10.59-53.21,22.28-76.48,11.68-23.26,25.99-42.03,42.92-56.29,16.93-14.26,34.5-21.39,52.72-21.39s32.57,5.64,44.26,16.93c7.13,6.73,12.28,13.96,15.45,21.68,3.17,7.72,4.75,17.33,4.75,28.81v5.64c0,3.37-.1,6.24-.3,8.61-.59,3.56-1.59,7.33-2.97,11.29-4.56,15.84-12.18,29.01-22.87,39.5-8.12,8.72-16.34,14.8-24.65,18.27-8.32,3.47-18.42,5.2-30.3,5.2-6.34,0-11.14-.25-14.41-.74-3.27-.49-7.48-1.73-12.62-3.71-6.53-2.38-11.24-4.06-14.11-5.05-2.87-.99-5.1-1.48-6.68-1.48h-.59c-1.39,0-2.67.4-3.86,1.19-3.17,1.39-5.4,3.96-6.68,7.72-1.29,3.76-1.93,9.8-1.93,18.12,0,21.79,4.2,37.72,12.62,47.82,8.41,10.1,18.96,15.15,31.63,15.15,2.38,0,4.95-.2,7.72-.59,11.48-1.98,27.03-9.8,46.63-23.46,8.71-6.33,15-10.44,18.86-12.33,3.86-1.88,7.57-2.82,11.14-2.82,7.13,0,11.78,2.08,13.96,6.24,2.18,4.16,3.27,7.72,3.27,10.69,0,3.37-.89,6.93-2.67,10.69-3.37,6.93-14.16,16.34-32.38,28.22-23.37,16.24-45.25,24.36-65.64,24.36h-2.97c-3.37,0-6.88-.15-10.54-.45-3.67-.3-6.59-.74-8.76-1.34Zm53.46-162.47c13.86-8.32,21.98-20.89,24.36-37.72.19-1.78.3-3.56.3-5.35,0-12.48-5.25-20.89-15.74-25.25-2.78-.99-5.55-1.49-8.32-1.49-10.89,0-22.77,6.83-35.64,20.49-10.89,11.09-16.34,20.5-16.34,28.22,0,6.73,2.82,12.38,8.47,16.93,5.64,4.56,10.79,7.13,15.45,7.72,4.65.59,7.87.89,9.65.89,6.14,0,12.08-1.49,17.82-4.46Z"/>
        <path class="cls-1" d="m279.72,366.75c-25.15-7.13-42.38-26.93-51.68-59.41-1.19-4.35-2.03-8.91-2.52-13.66-.5-4.75-.74-12.87-.74-24.36,0-12.08.25-20.74.74-25.99.49-5.24,1.53-11.44,3.12-18.56,6.73-30.49,17.42-58.61,32.08-84.36,14.65-25.74,30.69-44.65,48.12-56.73,13.26-8.91,27.03-13.37,41.29-13.37,4.35,0,8.81.4,13.37,1.19,16.04,3.17,27.18,8.52,33.42,16.04,6.24,7.53,9.36,13.77,9.36,18.71,0,3.96-1.39,7.72-4.16,11.29-2.38,3.17-5.64,4.75-9.8,4.75-4.75,0-10.79-2.08-18.12-6.24-4.95-2.57-8.72-4.16-11.29-4.75-2.58-.59-6.14-.89-10.69-.89-6.14,0-11.39,1.09-15.74,3.27-4.36,2.18-9.41,6.34-15.15,12.47-18.81,20-33.76,45.94-44.85,77.82-7.72,23.96-11.58,45.64-11.58,65.05,0,4.75.2,9.31.59,13.66,2.38,22.57,10.1,36.83,23.17,42.77,2.97,1.19,6.14,1.78,9.5,1.78,5.94,0,12.67-1.88,20.2-5.64,11.68-5.94,27.03-17.42,46.04-34.46,9.11-8.32,16.14-14.45,21.09-18.42,4.95-3.96,8.96-6.48,12.03-7.57,3.07-1.09,6.39-1.63,9.95-1.63,2.97,0,5.2.25,6.68.74,1.49.5,3.22,1.83,5.2,4.01,1.98,1.78,3.27,3.42,3.86,4.9.59,1.49.89,3.62.89,6.39,0,4.75-1.49,9.31-4.46,13.66-2.97,4.36-8.72,10.4-17.23,18.12-25.35,23.17-45.59,39.21-60.74,48.12-15.15,8.91-29.26,13.37-42.33,13.37h-2.38c-2.78,0-5.79-.2-9.06-.59-3.27-.39-5.99-.89-8.17-1.48Z"/>
        <path class="cls-1" d="m508.73,353.68c-22.18-7.72-37.43-26.73-45.74-57.03-1.19-4.16-2.03-8.51-2.52-13.07-.5-4.55-.74-11.78-.74-21.68,0-13.46.79-24.7,2.38-33.71,1.58-9.01,4.55-20.05,8.91-33.12,1.38-4.35,2.47-8.12,3.27-11.29.79-3.17,1.34-6.68,1.63-10.54.3-3.86.64-9.25,1.04-16.19.39-9.5.94-16.29,1.63-20.35.69-4.06,1.63-7.67,2.82-10.84,10.29-23.17,22.92-37.47,37.87-42.92,14.95-5.44,26.58-8.17,34.9-8.17,13.07,0,26.04,3.56,38.91,10.69,28.51,17.82,45.34,49.11,50.49,93.86.39,4.95.59,9.8.59,14.55,0,20.6-3.96,41.69-11.88,63.27-9.9,26.73-24.36,50-43.37,69.8-18.42,18.62-38.12,28.42-59.11,29.41h-11.29c-2.97-.39-6.24-1.29-9.8-2.67Zm35.05-43.37c6.93-3.76,14.5-10.34,22.72-19.75,8.21-9.4,15.19-19.46,20.94-30.15,2.38-5.35,4.7-11.44,6.98-18.27,2.27-6.83,3.42-11.53,3.42-14.11,0-1.19-.25-2.52-.74-4.01-.5-1.49-1.14-2.72-1.93-3.71-1.19-1.38-2.43-2.33-3.71-2.82-1.29-.49-2.82-.74-4.6-.74-1.19,0-2.58.1-4.16.3-3.76.2-9.31.89-16.63,2.08-6.53.99-10.89,1.48-13.07,1.48h-4.16c-3.17,0-6.73-.3-10.69-.89-8.91-1.58-15.59-2.42-20.05-2.52-4.46-.1-7.68.55-9.65,1.93-1.98,1.39-3.76,3.76-5.35,7.13-.99,2.18-1.74,4.95-2.23,8.32-.5,3.37-.84,8.61-1.04,15.74-.2,2.97-.3,5.84-.3,8.61,0,16.04,2.47,29.21,7.43,39.5,5.54,10.3,12.97,15.45,22.28,15.45,4.35,0,9.21-1.19,14.55-3.56Zm26.73-133.66c11.68-2.77,19.11-6.54,22.28-11.29,1.78-2.77,2.67-5.84,2.67-9.21,0-2.77-.59-5.74-1.78-8.91-2.78-7.13-7.38-13.66-13.81-19.6-6.44-5.94-13.51-9.7-21.24-11.29l-2.67-.3c-2.78,0-5.84.5-9.21,1.49-4.56.99-8.61,2.67-12.18,5.05-1.39.99-2.97,2.43-4.75,4.31-1.78,1.88-3.47,4.01-5.05,6.39-1.98,2.58-3.37,4.95-4.16,7.13-.79,2.18-1.29,5.05-1.48,8.61v2.08c0,11.29,4.35,19.31,13.07,24.06,5.15,2.78,11.38,4.16,18.71,4.16,5.94,0,12.48-.89,19.6-2.67Z"/>
        <path class="cls-1" d="m1043.97,390.21c-6.73-3.17-10.99-9.7-12.77-19.6-.79-4.75-1.19-11.98-1.19-21.68,0-24.55,2.67-65.05,8.02-121.48,1.19-12.28,2.18-22.47,2.97-30.59.79-8.12,1.38-14.5,1.78-19.16.39-4.65.59-8.27.59-10.84,0-2.38-.1-4.16-.3-5.35-.2-1.19-.59-2.27-1.19-3.27-1.39-3.17-3.12-5.5-5.2-6.98-2.08-1.48-5.05-2.38-8.91-2.67s-8.37-.45-13.51-.45h-8.32c-26.34,0-44.26,1.78-53.76,5.35-3.96,1.59-6.98,3.71-9.06,6.39-2.08,2.67-3.76,7.03-5.05,13.07-1.29,6.04-2.52,14.8-3.71,26.29-2.97,23.96-5,43.37-6.09,58.22-1.09,14.85-1.83,31.48-2.23,49.9-.2,11.29-.45,21.14-.74,29.55-.3,8.42-.64,13.51-1.04,15.3-1.19,2.97-3.37,5.84-6.54,8.61-3.17,2.78-6.04,4.16-8.61,4.16-10.1,0-17.33-7.52-21.68-22.57-1.59-7.52-2.38-18.22-2.38-32.08,0-23.96,2.38-57.52,7.13-100.69.99-8.51,1.49-15.25,1.49-20.2,0-1.78-.1-3.27-.3-4.46-.4-5.35-1.59-8.71-3.56-10.1-1.78-1.58-4.16-2.38-7.13-2.38h-.89c-3.17,0-7.82,1.29-13.96,3.86-3.37,1.19-6.68,2.18-9.95,2.97-3.27.79-5.6,1.19-6.98,1.19-7.33,0-12.48-3.66-15.45-10.99-.59-1.98-.89-3.66-.89-5.05v-.89c.19-1.38,1.09-3.46,2.67-6.24,1.98-4.16,5.59-8.07,10.84-11.73,5.24-3.66,13.81-7.97,25.69-12.92,9.7-3.96,16.78-7.43,21.24-10.4,4.46-2.97,7.77-7.57,9.95-13.81,2.18-6.24,4.65-16.09,7.43-29.55,0-.39.1-.79.3-1.19,3.36-15.84,6.88-27.33,10.54-34.46,3.66-7.13,8.27-11.29,13.81-12.48,1.58-.39,3.17-.59,4.75-.59,2.97,0,5.64.79,8.02,2.38,3.76,2.38,6.24,6.14,7.43,11.29v1.19c0,1.39-.2,3.47-.59,6.24-.59,3.37-1.29,7.33-2.08,11.88-3.17,12.08-4.75,21.68-4.75,28.81,0,7.72,1.88,12.48,5.64,14.26.59.4,1.58.74,2.97,1.04,1.38.3,3.17.45,5.35.45h13.66c5.35,0,12.47-.1,21.39-.3,14.65-.39,25.34-.89,32.08-1.48,6.73-.59,11.29-1.63,13.66-3.12,2.38-1.49,4.26-3.71,5.64-6.68.59-1.58,1.43-5.25,2.53-10.99,1.09-5.74,2.23-12.28,3.42-19.6,2.57-15.64,4.65-27.22,6.24-34.75,1.58-7.52,3.27-12.97,5.05-16.34,2.57-5.15,5.49-8.51,8.76-10.1,3.27-1.58,5.99-2.38,8.17-2.38s4.26.59,6.24,1.78c5.15,2.18,8.21,5.3,9.21,9.36.99,4.06,1.49,7.87,1.49,11.44,0,4.16-.4,9.11-1.19,14.85-4.56,28.12-6.83,49.21-6.83,63.27,0,7.53.69,13.07,2.08,16.63,1.38,4.56,2.08,8.72,2.08,12.47v2.38c-.4,4.16-2.08,9.31-5.05,15.45-2.18,4.36-3.91,8.57-5.2,12.62-1.29,4.06-2.38,9.7-3.27,16.93-.89,7.23-1.93,18.07-3.12,32.52-3.56,32.87-6.09,59.95-7.57,81.24-1.49,21.29-2.72,44.41-3.71,69.36-.2,7.53-1.09,13.37-2.67,17.53-1.59,4.16-4.16,7.33-7.72,9.5-2.78,1.98-4.75,2.97-5.94,2.97h-2.08c-2.18,0-4.56-.69-7.13-2.08Z"/>
        <path class="cls-1" d="m1171.1,353.68c-22.18-7.72-37.43-26.73-45.74-57.03-1.19-4.16-2.03-8.51-2.52-13.07-.5-4.55-.74-11.78-.74-21.68,0-13.46.79-24.7,2.38-33.71,1.58-9.01,4.55-20.05,8.91-33.12,1.38-4.35,2.47-8.12,3.27-11.29.79-3.17,1.34-6.68,1.63-10.54s.64-9.25,1.04-16.19c.39-9.5.94-16.29,1.63-20.35.69-4.06,1.63-7.67,2.82-10.84,10.29-23.17,22.92-37.47,37.87-42.92,14.95-5.44,26.58-8.17,34.9-8.17,13.07,0,26.04,3.56,38.91,10.69,28.51,17.82,45.34,49.11,50.49,93.86.39,4.95.59,9.8.59,14.55,0,20.6-3.96,41.69-11.88,63.27-9.9,26.73-24.36,50-43.37,69.8-18.42,18.62-38.12,28.42-59.11,29.41h-11.29c-2.97-.39-6.24-1.29-9.8-2.67Zm35.05-43.37c6.93-3.76,14.5-10.34,22.72-19.75,8.21-9.4,15.19-19.46,20.94-30.15,2.38-5.35,4.7-11.44,6.98-18.27,2.27-6.83,3.42-11.53,3.42-14.11,0-1.19-.25-2.52-.74-4.01-.5-1.49-1.14-2.72-1.93-3.71-1.19-1.38-2.43-2.33-3.71-2.82-1.29-.49-2.82-.74-4.6-.74-1.19,0-2.58.1-4.16.3-3.76.2-9.31.89-16.63,2.08-6.54.99-10.89,1.48-13.07,1.48h-4.16c-3.17,0-6.73-.3-10.69-.89-8.91-1.58-15.59-2.42-20.05-2.52-4.46-.1-7.68.55-9.65,1.93-1.98,1.39-3.76,3.76-5.35,7.13-.99,2.18-1.74,4.95-2.23,8.32-.5,3.37-.84,8.61-1.04,15.74-.2,2.97-.3,5.84-.3,8.61,0,16.04,2.47,29.21,7.43,39.5,5.54,10.3,12.97,15.45,22.28,15.45,4.35,0,9.21-1.19,14.55-3.56Zm26.73-133.66c11.68-2.77,19.11-6.54,22.28-11.29,1.78-2.77,2.67-5.84,2.67-9.21,0-2.77-.59-5.74-1.78-8.91-2.78-7.13-7.38-13.66-13.81-19.6-6.44-5.94-13.51-9.7-21.24-11.29l-2.67-.3c-2.78,0-5.84.5-9.21,1.49-4.56.99-8.61,2.67-12.18,5.05-1.39.99-2.97,2.43-4.75,4.31-1.78,1.88-3.47,4.01-5.05,6.39-1.98,2.58-3.37,4.95-4.16,7.13-.79,2.18-1.29,5.05-1.49,8.61v2.08c0,11.29,4.35,19.31,13.07,24.06,5.15,2.78,11.38,4.16,18.71,4.16,5.94,0,12.47-.89,19.6-2.67Z"/>
        <path class="cls-1" d="m1379.91,336.16c-20.6-7.92-32.87-29.11-36.83-63.56-.59-5.54-.89-12.28-.89-20.2,0-3.76.1-7.92.3-12.47.39-13.46,1.29-25.15,2.67-35.05,2.97-20.79,7.17-41.04,12.62-60.74,5.44-19.7,10.74-33.42,15.89-41.14,4.35-6.14,9.55-9.25,15.59-9.36,6.04-.1,10.84,2.82,14.41,8.76.99,1.78,1.49,4.16,1.49,7.13,0,1.19-.1,2.58-.3,4.16-.59,4.75-2.48,12.58-5.64,23.46-10.5,37.82-15.74,73.76-15.74,107.82v7.13c0,6.53.15,11.58.45,15.15s.69,6.39,1.19,8.46c.49,2.08,1.04,4.01,1.63,5.79,3.17,6.34,7.03,9.5,11.58,9.5,3.56,0,7.62-1.98,12.18-5.94,5.54-4.75,12.28-13.37,20.2-25.84,7.92-12.48,19.01-32.18,33.27-59.11,12.87-23.76,22.32-40.44,28.37-50.05,6.04-9.6,11.24-15.99,15.59-19.16,5.35-4.35,10.69-6.54,16.04-6.54,1.19,0,2.38.1,3.56.3,6.33,1.19,11.38,5.45,15.15,12.77.79,1.39,1.38,2.87,1.78,4.46.39,1.59.69,4.21.89,7.87.2,3.67.34,9.26.45,16.78.1,7.53.25,17.82.45,30.89,0,18.22.15,32.03.45,41.44.3,9.41.79,17.58,1.49,24.5.69,6.93,1.73,15.84,3.12,26.73,1.19,8.32,1.78,14.85,1.78,19.6,0,1.78-.1,3.37-.3,4.75-.59,4.75-2.67,8.52-6.24,11.29-1.39,1.59-2.82,2.72-4.31,3.42-1.49.7-3.42,1.04-5.79,1.04-8.12,0-14.26-3.91-18.42-11.73-4.16-7.82-7.13-21.04-8.91-39.65-1.39-11.68-2.58-20.69-3.56-27.03-.99-6.33-2.08-10.64-3.27-12.92-1.19-2.27-2.67-3.42-4.46-3.42-3.96,0-11.78,9.71-23.46,29.11-15.45,26.14-28.71,44.36-39.8,54.65-6.93,6.73-13.27,11.49-19.01,14.26-5.75,2.78-12.08,4.26-19.01,4.46h-2.67c-5.94,0-10.6-.59-13.96-1.78Z"/>
        <path class="cls-1" d="m1647.82,385.76c-29.31-8.32-47.33-27.03-54.06-56.14-.99-4.95-1.49-10.1-1.49-15.45,0-14.26,3.86-29.41,11.58-45.44,3.56-7.13,7.38-13.71,11.44-19.75,4.06-6.04,9.45-13.12,16.19-21.24,8.51-9.11,12.77-16.04,12.77-20.79,0-.59-.1-1.19-.3-1.78-1.39-4.75-9.01-10.69-22.87-17.82-21.58-12.08-32.38-27.33-32.38-45.74v-2.08c.59-19.6,12.77-40.99,36.53-64.16,19.4-19.21,36.04-29.5,49.9-30.89,1.19-.2,2.38-.3,3.56-.3,4.95,0,9.31,1.39,13.07,4.16,4.75,3.56,7.13,7.92,7.13,13.07,0,6.54-5.55,12.77-16.63,18.71-6.93,3.56-12.77,7.18-17.52,10.84-4.75,3.67-9.41,8.07-13.96,13.22-12.28,13.27-18.42,24.06-18.42,32.38,0,2.58.59,4.85,1.78,6.83,1.58,3.37,4.8,6.54,9.65,9.5,4.85,2.97,12.22,6.44,22.13,10.4,11.68,4.95,20.79,7.42,27.33,7.42h.59c6.54-.19,15.45-3.17,26.73-8.91,35.84-16.23,62.77-24.36,80.79-24.36,3.37,0,6.43.3,9.21.89,8.51,2.77,13.12,6.14,13.81,10.1.69,3.96,1.04,6.44,1.04,7.43,0,5.75-2.97,10.79-8.91,15.15-1.39.99-4.46,2.28-9.21,3.86-4.75,1.59-10.1,3.17-16.04,4.75-21.98,5.35-34.36,9.76-37.13,13.22-2.78,3.47-4.16,6.29-4.16,8.46,0,4.75,2.87,10.69,8.61,17.82,8.71,11.88,14.6,22.23,17.67,31.04,3.07,8.81,4.6,17.78,4.6,26.88,0,2.18-.1,4.36-.3,6.53-.79,15.25-5.25,29.7-13.37,43.37-16.44,26.73-38.71,45.45-66.83,56.14-4.16,1.59-8.07,2.67-11.73,3.27-3.67.59-9.06.99-16.19,1.19h-6.53c-8.32,0-14.36-.59-18.12-1.78Zm32.38-39.5c13.07-3.56,24.95-10.29,35.64-20.2,10.69-9.9,17.82-20.69,21.39-32.38,1.38-5.15,2.08-10.1,2.08-14.85,0-14.06-6.14-27.22-18.42-39.5-7.33-7.32-14.46-10.99-21.39-10.99-3.56,0-7.13.99-10.69,2.97-2.78,1.39-6.79,4.51-12.03,9.36-5.25,4.85-10.5,10.15-15.74,15.89-5.25,5.75-9.26,10.6-12.03,14.55-10.1,15.45-15.15,29.51-15.15,42.18,0,3.56.39,6.93,1.19,10.1,2.77,8.91,7.72,15.15,14.85,18.71,7.13,3.56,13.76,5.35,19.9,5.35,3.36,0,6.83-.39,10.4-1.19Z"/>
        <path class="cls-1" d="m1904.45,351.9c-22.57-6.53-38.91-19.4-49.01-38.61-10.1-19.21-15.15-40.4-15.15-63.56,0-5.74.3-11.68.89-17.82,3.17-27.72,10.59-53.21,22.28-76.48,11.68-23.26,25.99-42.03,42.92-56.29,16.93-14.26,34.5-21.39,52.72-21.39s32.57,5.64,44.26,16.93c7.13,6.73,12.28,13.96,15.45,21.68,3.17,7.72,4.75,17.33,4.75,28.81v5.64c0,3.37-.1,6.24-.3,8.61-.59,3.56-1.59,7.33-2.97,11.29-4.56,15.84-12.18,29.01-22.87,39.5-8.12,8.72-16.34,14.8-24.65,18.27-8.32,3.47-18.42,5.2-30.3,5.2-6.34,0-11.14-.25-14.41-.74-3.27-.49-7.48-1.73-12.62-3.71-6.54-2.38-11.24-4.06-14.11-5.05-2.87-.99-5.1-1.48-6.68-1.48h-.59c-1.39,0-2.67.4-3.86,1.19-3.17,1.39-5.4,3.96-6.68,7.72-1.29,3.76-1.93,9.8-1.93,18.12,0,21.79,4.21,37.72,12.62,47.82,8.42,10.1,18.96,15.15,31.63,15.15,2.38,0,4.95-.2,7.72-.59,11.48-1.98,27.03-9.8,46.63-23.46,8.71-6.33,15-10.44,18.86-12.33,3.86-1.88,7.57-2.82,11.14-2.82,7.13,0,11.78,2.08,13.96,6.24,2.18,4.16,3.27,7.72,3.27,10.69,0,3.37-.89,6.93-2.67,10.69-3.37,6.93-14.16,16.34-32.38,28.22-23.37,16.24-45.25,24.36-65.64,24.36h-2.97c-3.37,0-6.88-.15-10.54-.45-3.67-.3-6.58-.74-8.76-1.34Zm53.46-162.47c13.86-8.32,21.98-20.89,24.36-37.72.2-1.78.3-3.56.3-5.35,0-12.48-5.25-20.89-15.74-25.25-2.78-.99-5.55-1.49-8.32-1.49-10.89,0-22.77,6.83-35.64,20.49-10.89,11.09-16.34,20.5-16.34,28.22,0,6.73,2.82,12.38,8.46,16.93,5.64,4.56,10.79,7.13,15.45,7.72,4.65.59,7.87.89,9.65.89,6.14,0,12.08-1.49,17.82-4.46Z"/>
      </g>
    </g>
  </g>
</svg>